<svg width="235" height="59" viewBox="0 0 235 59" fill="none" xmlns="http://www.w3.org/2000/svg">
<g clip-path="url(#clip0)">
<path d="M19.9692 23.8157C19.1601 29.6942 13.9612 31.2498 10.1396 31.2498C5.13003 31.2498 0 28.6285 0 20.4381C0 12.1274 5.25914 9.62646 10.019 9.62646C14.6498 9.62646 20.0381 11.9383 20.0381 20.4381V21.2546H5.63787C5.75837 25.0619 7.39378 26.944 10.2687 26.944C12.5841 26.944 14.0215 25.758 14.4002 23.8243H19.9692V23.8157ZM14.3314 18.1262C14.0129 15.2557 12.5152 13.8119 10.0707 13.8119C7.62618 13.8119 6.12849 15.2471 5.81001 18.1262H14.3314Z" fill="white"/>
<path d="M24.4814 0H30.5583V5.12221H24.4814V0ZM24.6622 10.0639H30.4206V30.7505H24.6622V10.0639Z" fill="white"/>
<path d="M36.2451 10.0624H41.3751V12.7439C42.5027 10.9992 44.5685 9.56396 48.1406 9.56396C51.5835 9.56396 55.2761 10.9992 55.2761 17.9348V30.749H49.5178V19.0005C49.5178 16.0613 48.8292 14.5573 46.0145 14.5573C44.0693 14.5573 42.7609 15.3737 42.0723 16.1214V30.749H36.3054V10.0624H36.2451Z" fill="white"/>
<path d="M74.6775 28.318C73.7995 29.6931 71.8629 31.2572 68.549 31.2572C64.099 31.2572 59.7178 28.318 59.7178 20.5058C59.7178 12.6248 64.1678 9.63394 68.549 9.63394C71.553 9.63394 73.3692 11.1293 74.0578 12.0661V0.00830078H79.8161V30.7588H74.6775V28.318ZM74.0491 15.7531C73.1712 14.9452 71.794 14.378 70.2963 14.378C67.1632 14.378 65.6053 16.5008 65.6053 20.437C65.6053 24.3732 67.1718 26.5647 70.2963 26.5647C71.8629 26.5647 73.1712 26.0061 74.0491 25.1897V15.7531Z" fill="white"/>
<path d="M85.6367 0H91.3951V12.436C92.3935 10.932 94.3388 9.62564 97.6613 9.62564C100.975 9.62564 104.668 11.0609 104.668 17.9965V30.7505H98.9094V19.002C98.9094 16.0628 98.2208 14.5588 95.4061 14.5588C93.4695 14.5588 92.1525 15.3752 91.4639 16.1229V30.7505H85.6453V0H85.6367Z" fill="white"/>
<path d="M109.047 20.3756C109.047 11.9446 114.616 9.56396 119.505 9.56396C124.394 9.56396 129.954 11.936 129.954 20.3756C129.954 28.8152 124.394 31.1873 119.505 31.1873C114.616 31.1873 109.047 28.8152 109.047 20.3756ZM124.067 20.3756C124.067 16.3105 122.5 14.2565 119.505 14.2565C116.501 14.2565 114.934 16.2503 114.934 20.3756C114.934 24.4407 116.501 26.5034 119.505 26.5034C122.5 26.5034 124.067 24.4407 124.067 20.3756Z" fill="white"/>
<path d="M132.02 10.063H138.217L142.839 24.8108L147.478 10.063H153.108L145.774 30.7495H139.336L132.02 10.063Z" fill="white"/>
<path d="M175.152 23.8157C174.325 29.6942 169.135 31.2498 165.313 31.2498C160.304 31.2498 155.174 28.6285 155.174 20.4381C155.174 12.1274 160.433 9.62646 165.193 9.62646C169.815 9.62646 175.203 11.9383 175.203 20.4381V21.2546H160.803C160.932 25.0619 162.55 26.944 165.434 26.944C167.749 26.944 169.195 25.758 169.557 23.8243H175.152V23.8157ZM169.514 18.1262C169.204 15.2557 167.698 13.8119 165.262 13.8119C162.817 13.8119 161.32 15.2471 161.001 18.1262H169.514Z" fill="white"/>
<path d="M179.785 10.0627H184.924V12.7442C186.06 10.9909 188.117 9.55566 191.689 9.55566C195.124 9.55566 198.816 10.9909 198.816 17.9265V30.7407H193.066V18.9922C193.066 16.053 192.378 14.549 189.555 14.549C187.618 14.549 186.301 15.3654 185.612 16.1131V30.7407H179.854V10.0541H179.785V10.0627Z" fill="white"/>
<path d="M73.8704 37.8845H79.0005V40.5659C80.0678 38.8213 82.0045 37.3774 85.3183 37.3774C87.5132 37.3774 89.8286 38.0048 91.0767 40.5659C92.3334 38.8213 94.4594 37.3774 97.713 37.3774C100.967 37.3774 104.539 38.8213 104.539 45.7569V58.571H98.7803V46.8226C98.7803 43.9435 98.152 42.3793 95.6472 42.3793C93.8913 42.3793 92.6432 43.1958 91.9546 43.9435C92.0149 44.5709 92.0149 45.1381 92.0149 45.8858V58.6999H86.2565V46.8226C86.2565 43.8833 85.6282 42.3793 83.1234 42.3793C81.3675 42.3793 80.1194 43.1958 79.5513 43.9435V58.6312H73.793V37.8845H73.8704Z" fill="white"/>
<path d="M109.858 37.8855H115.617V49.634C115.617 52.5732 116.245 54.1288 118.999 54.1288C120.936 54.1288 122.193 53.3209 122.881 52.5646V37.877H128.64V58.5635H123.57V55.8219C122.442 57.5665 120.377 59.0018 116.934 59.0018C113.491 59.0018 109.927 57.5665 109.927 50.6223V37.877H109.858V37.8855Z" fill="white"/>
<path d="M138.778 51.8159C138.847 53.8184 140.534 55.202 142.978 55.202C144.915 55.202 146.232 54.3856 146.232 52.8902C146.232 50.9393 143.917 50.8275 140.035 49.7619C137.211 48.9454 133.898 47.6992 133.898 43.6341C133.898 39.0104 138.15 37.3774 142.402 37.3774C147.162 37.3774 150.854 39.5088 151.173 43.8833H145.483C145.414 42.3106 144.106 41.2535 142.29 41.2535C140.784 41.2535 139.656 41.941 139.656 43.1958C139.656 45.1381 142.29 45.1897 145.922 46.1952C148.978 47.0117 152.059 48.4469 152.059 52.4519C152.059 57.3936 147.42 59.0781 142.978 59.0781C137.59 59.0781 133.579 56.7146 133.209 51.8932H138.769V51.8159H138.778Z" fill="white"/>
<path d="M175.152 51.5669C174.325 57.4455 169.135 59.001 165.313 59.001C160.304 59.001 155.174 56.3712 155.174 48.1808C155.174 39.8701 160.433 37.3691 165.193 37.3691C169.815 37.3691 175.203 39.6896 175.203 48.1808V49.0058H160.803C160.932 52.8131 162.55 54.6867 165.434 54.6867C167.749 54.6867 169.195 53.5007 169.557 51.5669H175.152ZM169.514 45.8775C169.204 42.9984 167.698 41.5717 165.262 41.5717C162.817 41.5717 161.32 42.9984 161.001 45.8775H169.514Z" fill="white"/>
<path d="M179.785 37.8855H185.552V49.634C185.552 52.5732 186.172 54.1288 188.935 54.1288C190.88 54.1288 192.128 53.3209 192.817 52.5646V37.877H198.575V58.5635H193.505V55.8219C192.378 57.5665 190.312 59.0018 186.869 59.0018C183.426 59.0018 179.863 57.5665 179.863 50.6223V37.877H179.785V37.8855Z" fill="white"/>
<path d="M204.323 37.8845H209.453V40.5659C210.52 38.8213 212.465 37.3774 215.779 37.3774C217.974 37.3774 220.281 38.0048 221.538 40.5659C222.794 38.8213 224.92 37.3774 228.174 37.3774C231.488 37.3774 234.991 38.8213 234.991 45.7569V58.571H229.233V46.8226C229.233 43.9435 228.613 42.3793 226.108 42.3793C224.352 42.3793 223.096 43.1958 222.407 43.9435C222.476 44.5709 222.476 45.1381 222.476 45.8858V58.6999H216.709V46.8226C216.709 43.8833 216.089 42.3793 213.584 42.3793C211.837 42.3793 210.572 43.1958 210.021 43.9435V58.6312H204.254V37.8845H204.323Z" fill="white"/>
</g>
<defs>
<clipPath id="clip0">
<rect width="235" height="59" fill="white"/>
</clipPath>
</defs>
</svg>
